# xmcd CD database file
#
# Track frame offsets:
#	150
#	29023
#	51034
#	65469
#	87365
#	108380
#	126263
#	140085
#	160648
#	189905
#	205064
#	222800
#
# Disc length: 3314 seconds
#
# Revision: 0
# Processed by: cddbd v1.4PL0 Copyright (c) Steve Scherf et al.
# Submitted via: CDex 1.50
#
DISCID=aa0cf00c
DTITLE=Luther Allison - Soul Fixin' Man
DYEAR=1994
DGENRE=Blues
TTITLE0=Bad Love
TTITLE1=I Wanna Know
TTITLE2=Soul Fixin' Man
TTITLE3=Middle Of The Road
TTITLE4=She Was Born That Way
TTITLE5=Gave It All
TTITLE6=You Been Teasin' Me
TTITLE7=Nobody But You
TTITLE8=Put Your Money Where Your Mouth Is
TTITLE9=Things That I Used To Do
TTITLE10=Love String
TTITLE11=Freedom
EXTD=YEAR: 1994
EXTT0=
EXTT1=
EXTT2=
EXTT3=
EXTT4=
EXTT5=
EXTT6=
EXTT7=
EXTT8=
EXTT9=
EXTT10=
EXTT11=
PLAYORDER=
